<?xml version="1.0" encoding="utf-8"?>
<!-- Generator: Adobe Illustrator 16.0.0, SVG Export Plug-In . SVG Version: 6.00 Build 0)  -->
<!DOCTYPE svg PUBLIC "-//W3C//DTD SVG 1.1 Tiny//EN" "http://www.w3.org/Graphics/SVG/1.1/DTD/svg11-tiny.dtd">
<svg version="1.1" baseProfile="tiny" id="Layer_1" xmlns="http://www.w3.org/2000/svg" xmlns:xlink="http://www.w3.org/1999/xlink"
	 x="0px" y="0px" width="642.423px" height="107.75px" viewBox="0 0 642.423 107.75" xml:space="preserve">
<path fill-rule="evenodd" fill="#367EF1" d="M90,0H0v71.92l36.08,35.83L36,90h54V0z M72,72H18V18h54V72z"/>
<g>
	<path fill="#444444" d="M113.676,17.886h8.104l13.255,37.797c0.985,2.878,2.045,7.347,2.045,7.347h0.152
		c0,0,1.06-4.469,2.045-7.347l13.407-37.797h7.953l-19.693,53.476h-7.499L113.676,17.886z"/>
	<path fill="#444444" d="M165.255,17.886h7.423v7.499h-7.423V17.886z M165.331,33.035h7.348v38.327h-7.348V33.035z"/>
	<path fill="#444444" d="M183.13,61.438c0,0,4.317,4.47,10.983,4.47c3.182,0,6.363-1.667,6.363-4.772
		c0-7.044-19.694-5.605-19.694-18.103c0-6.969,6.211-10.908,13.861-10.908c8.408,0,12.347,4.242,12.347,4.242l-2.954,5.529
		c0,0-3.409-3.408-9.468-3.408c-3.181,0-6.287,1.363-6.287,4.696c0,6.893,19.693,5.378,19.693,17.951
		c0,6.362-5.454,11.135-13.861,11.135c-9.392,0-14.543-5.605-14.543-5.605L183.13,61.438z"/>
	<path fill="#444444" d="M214.563,33.035h7.347v22.875c0,5.303,1.061,9.544,7.196,9.544c7.801,0,12.422-6.893,12.422-14.467V33.035
		h7.347v38.327h-7.12v-5.075c0-1.591,0.152-2.802,0.152-2.802h-0.152c-1.59,3.787-6.589,8.786-14.088,8.786
		c-8.635,0-13.104-4.545-13.104-14.694V33.035z"/>
	<path fill="#444444" d="M278.867,47.426h1.667v-0.682c0-6.287-3.56-8.407-8.408-8.407c-5.908,0-10.68,3.711-10.68,3.711
		l-3.03-5.377c0,0,5.529-4.545,14.315-4.545c9.695,0,15.149,5.302,15.149,14.998v24.238h-6.817v-3.636
		c0-1.742,0.151-3.03,0.151-3.03h-0.151c0,0-3.105,7.575-12.271,7.575c-6.59,0-13.028-4.015-13.028-11.665
		C255.765,47.956,272.429,47.426,278.867,47.426z M270.384,66.362c6.211,0,10.226-6.515,10.226-12.195v-1.212h-1.894
		c-5.529,0-15.527,0.379-15.527,7.271C263.188,63.332,265.612,66.362,270.384,66.362z"/>
	<path fill="#444444" d="M296.894,17.886h7.347v41.735c0,4.62,1.818,5.453,4.09,5.453c0.682,0,1.288-0.075,1.288-0.075v6.514
		c0,0-1.136,0.151-2.424,0.151c-4.166,0-10.301-1.136-10.301-10.756V17.886z"/>
	<path fill="#444444" d="M320.373,17.583h30.904v8.408h-21.133v15.225h17.8v8.408h-17.8v21.738h-9.771V17.583z"/>
	<path fill="#444444" d="M374.302,31.823c11.134,0,17.118,8.104,17.118,18.33c0,1.137-0.228,3.712-0.228,3.712H364.53
		c0.606,6.741,5.833,10.226,11.589,10.226c6.211,0,11.135-4.242,11.135-4.242l3.712,6.894c0,0-5.908,5.529-15.528,5.529
		c-12.801,0-20.754-9.241-20.754-20.224C354.684,40.154,362.788,31.823,374.302,31.823z M381.725,47.274
		c-0.151-5.227-3.408-8.029-7.65-8.029c-4.923,0-8.332,3.03-9.24,8.029H381.725z"/>
	<path fill="#444444" d="M414.747,31.823c11.134,0,17.118,8.104,17.118,18.33c0,1.137-0.228,3.712-0.228,3.712h-26.662
		c0.606,6.741,5.833,10.226,11.589,10.226c6.211,0,11.135-4.242,11.135-4.242l3.712,6.894c0,0-5.908,5.529-15.528,5.529
		c-12.801,0-20.754-9.241-20.754-20.224C395.129,40.154,403.233,31.823,414.747,31.823z M422.17,47.274
		c-0.151-5.227-3.408-8.029-7.65-8.029c-4.923,0-8.332,3.03-9.24,8.029H422.17z"/>
	<path fill="#444444" d="M453.146,31.823c8.483,0,11.134,4.923,11.134,4.923h0.151c0,0-0.075-0.985-0.075-2.197V17.583h9.619v53.779
		h-9.089V68.18c0-1.438,0.151-2.499,0.151-2.499h-0.151c0,0-3.257,6.59-12.119,6.59c-10.453,0-17.118-8.257-17.118-20.224
		C435.649,39.776,442.921,31.823,453.146,31.823z M454.964,64.166c4.999,0,9.695-3.636,9.695-12.195
		c0-5.983-3.181-11.892-9.619-11.892c-5.303,0-9.695,4.318-9.695,11.968C445.345,59.394,449.283,64.166,454.964,64.166z"/>
	<path fill="#444444" d="M483.063,17.583h9.62v16.588c0,1.894-0.151,3.257-0.151,3.257h0.151c0,0,3.408-5.605,11.589-5.605
		c10.453,0,17.118,8.256,17.118,20.224c0,12.271-7.499,20.224-17.725,20.224c-8.028,0-11.513-5.757-11.513-5.757h-0.151
		c0,0,0.151,1.136,0.151,2.651v2.196h-9.09V17.583z M501.999,64.166c5.302,0,9.695-4.318,9.695-11.968
		c0-7.348-3.938-12.12-9.619-12.12c-5,0-9.695,3.636-9.695,12.195C492.38,58.258,495.561,64.166,501.999,64.166z"/>
	<path fill="#444444" d="M547.443,47.123h1.288v-0.53c0-5.075-3.182-6.817-7.423-6.817c-5.53,0-10.604,3.711-10.604,3.711
		l-3.636-6.893c0,0,5.983-4.772,15.148-4.772c10.15,0,16.059,5.605,16.059,15.376v24.162h-8.862V68.18
		c0-1.515,0.151-2.727,0.151-2.727h-0.151c0.075,0-2.954,6.817-11.741,6.817c-6.893,0-13.104-4.317-13.104-12.044
		C524.568,47.956,541.156,47.123,547.443,47.123z M540.096,64.771c5.075,0,8.711-5.453,8.711-10.149v-0.909h-1.666
		c-4.924,0-12.877,0.682-12.877,6.06C534.264,62.348,536.157,64.771,540.096,64.771z"/>
	<path fill="#444444" d="M584.936,31.823c10.074,0,14.847,5.756,14.847,5.756l-4.242,6.59c0,0-4.015-4.166-10.074-4.166
		c-7.12,0-11.74,5.378-11.74,11.968c0,6.514,4.696,12.119,12.044,12.119c6.514,0,11.361-4.924,11.361-4.924l3.711,6.817
		c0,0-5.529,6.287-15.906,6.287c-12.801,0-20.98-9.014-20.98-20.224C563.955,41.063,572.135,31.823,584.936,31.823z"/>
	<path fill="#444444" d="M606.521,17.583h9.62v28.783h4.771l9.316-13.634h10.681l-12.195,17.27v0.151l13.71,21.209h-11.059
		l-10.226-16.891h-4.999v16.891h-9.62V17.583z"/>
</g>
<g>
</g>
<g>
</g>
<g>
</g>
<g>
</g>
<g>
</g>
<g>
</g>
<g>
</g>
<g>
</g>
<g>
</g>
<g>
</g>
<g>
</g>
<g>
</g>
<g>
</g>
<g>
</g>
<g>
</g>
</svg>
